<svg width="670" height="807" viewBox="0 0 670 807" fill="none" xmlns="http://www.w3.org/2000/svg">
<circle cx="334.534" cy="472.466" r="315.534" fill="white" stroke="#FF6347" stroke-width="38"/>
<circle cx="334.534" cy="202.656" r="183.656" fill="white" stroke="#FF6347" stroke-width="38"/>
<path d="M315.781 214.083C315.781 207.772 320.864 202.656 327.135 202.656H341.328C347.599 202.656 352.682 207.772 352.682 214.083V345.49C352.682 351.801 347.599 356.917 341.328 356.917H327.135C320.864 356.917 315.781 351.801 315.781 345.49V214.083Z" fill="#15534D"/>
<path d="M396.566 138.229C396.566 172.656 368.658 200.564 334.232 200.564C299.805 200.564 271.897 172.656 271.897 138.229C271.897 103.803 299.805 75.8951 334.232 75.8951C368.658 75.8951 396.566 103.803 396.566 138.229Z" fill="#FF6347" stroke="#15534D" stroke-width="55"/>
</svg>
