<svg width="1121" height="769" viewBox="0 0 1121 769" fill="none" xmlns="http://www.w3.org/2000/svg">
<path d="M63.1871 41.136C63.1871 35.5677 61.5536 31.113 58.2864 27.772C55.1612 24.2918 50.8997 22.5517 45.5017 22.5517C41.0981 22.5517 36.3393 23.8046 31.2255 26.3103V106.912H8V2.29693H28.6685L31.4386 3.54981C37.4047 1.6009 43.584 0.626441 49.9763 0.626441C57.0789 0.626441 63.2582 1.87931 68.5141 4.38506C74.1962 6.8908 78.5998 10.6494 81.7249 15.6609C84.9921 20.6724 86.6257 27.0064 86.6257 34.6628V106.912H63.1871V41.136Z" fill="white"/>
<path d="M197 68.4904C197 80.1839 193.733 89.8589 187.198 97.5153C180.664 105.172 170.791 109 157.581 109C144.37 109 134.355 105.172 127.537 97.5153C120.86 89.7197 117.522 80.0447 117.522 68.4904V40.9272C117.522 27.7024 120.931 17.6098 127.75 10.6494C134.71 3.54981 144.654 0 157.581 0C169.939 0 179.599 3.68902 186.559 11.067C193.52 18.3059 197 28.2593 197 40.9272V68.4904ZM173.775 40.9272C173.775 33.5492 172.212 28.7465 169.087 26.5192C165.962 24.2918 162.126 23.1782 157.581 23.1782C146.501 23.1782 140.961 29.0945 140.961 40.9272V70.5785C140.961 76.1469 142.523 80.1839 145.648 82.6897C148.773 85.1954 152.751 86.4483 157.581 86.4483C162.268 86.4483 166.104 85.1258 169.087 82.4808C172.212 79.8359 173.775 75.8685 173.775 70.5785V40.9272Z" fill="white"/>
<path d="M8 149.669H197.282V212.028H70.3385V312.368H149.678L129.277 371.892H70.3385V546.497H8V149.669Z" fill="white"/>
<path d="M281.639 210.894C272.571 210.894 264.637 207.492 257.837 200.69C251.036 193.887 247.636 185.95 247.636 176.88C247.636 168.188 251.036 160.629 257.837 154.204C264.637 147.401 272.571 144 281.639 144C290.328 144 297.884 147.401 304.307 154.204C311.108 160.629 314.508 168.188 314.508 176.88C314.508 185.95 311.108 193.887 304.307 200.69C297.884 207.492 290.328 210.894 281.639 210.894ZM248.769 262.481H311.108V546.497H248.769V262.481Z" fill="white"/>
<path d="M442.793 468.265C442.793 475.068 446.194 481.492 452.994 487.539C460.173 493.586 470.94 496.61 485.297 496.61C497.765 496.61 507.399 493.586 514.199 487.539C521 481.114 524.4 473.745 524.4 465.43C524.4 453.714 520.055 445.022 511.366 439.353C503.054 433.684 489.453 427.448 470.562 420.645C454.317 415.354 440.904 410.063 430.326 404.772C419.747 399.481 410.302 391.545 401.99 380.963C393.678 370.381 388.767 356.586 387.255 339.579C386.122 326.73 388.578 313.88 394.623 301.03C401.046 287.803 411.624 277.032 426.359 268.717C441.471 260.025 460.739 255.679 484.164 255.679C496.253 255.679 506.832 257.001 515.9 259.647C525.345 261.914 532.712 264.371 538.001 267.017C543.291 269.662 546.502 271.363 547.635 272.119L529.501 329.942C528.745 329.186 526.667 327.863 523.267 325.974C520.244 323.706 515.333 321.628 508.532 319.738C501.732 317.848 493.609 316.903 484.164 316.903C463.762 316.903 453.561 322.572 453.561 333.91C453.561 336.178 453.939 338.445 454.694 340.713C455.828 346.004 459.795 350.539 466.595 354.319C473.396 357.72 483.408 361.877 496.631 366.79C515.144 373.593 530.634 380.396 543.102 387.199C555.947 393.623 566.904 403.45 575.971 416.677C585.416 429.527 590.139 446.156 590.139 466.564C590.139 482.059 586.361 496.61 578.805 510.215C571.249 523.443 559.536 534.214 543.668 542.528C528.178 550.843 508.721 555 485.297 555C463.762 555 445.06 551.41 429.192 544.229C413.702 536.67 401.801 526.844 393.489 514.75C385.555 502.657 381.211 489.24 380.455 474.501L442.793 468.265Z" fill="white"/>
<path d="M807 543.095C783.576 549.142 760.907 552.165 738.994 552.165C718.593 552.165 701.591 549.898 687.99 545.363C665.699 537.804 649.454 526.277 639.253 510.782C629.43 494.909 624.518 472.8 624.518 444.455V371.892C624.518 334.477 634.341 306.132 653.987 286.858C673.633 267.205 698.947 257.379 729.927 257.379C754.484 257.379 779.798 263.426 805.867 275.52L788.865 329.375C770.73 322.194 754.485 318.604 740.128 318.604C723.126 318.604 709.903 323.328 700.458 332.777C691.39 342.225 686.857 354.13 686.857 368.491V450.691C686.857 465.052 691.957 475.257 702.158 481.303C712.359 487.35 725.393 490.374 741.261 490.374C750.329 490.374 759.396 489.429 768.464 487.539C777.531 485.65 784.709 483.76 789.999 481.87L807 543.095Z" fill="white"/>
<path d="M942 532.889C942 522.457 950.403 514 960.769 514H984.231C994.597 514 1003 522.457 1003 532.889V750.111C1003 760.543 994.597 769 984.231 769H960.769C950.403 769 942 760.543 942 750.111V532.889Z" fill="white"/>
<path d="M1093.5 407.5C1093.5 474.326 1039.33 528.5 972.5 528.5C905.674 528.5 851.5 474.326 851.5 407.5C851.5 340.674 905.674 286.5 972.5 286.5C1039.33 286.5 1093.5 340.674 1093.5 407.5Z" fill="#FF6347" stroke="white" stroke-width="55"/>
<path d="M48.8361 715.836C48.8361 712.2 47.4614 709.388 44.7121 707.4C42.0111 705.364 37.2601 703.618 30.4592 702.164C23.7066 700.709 18.3286 698.964 14.3252 696.927C10.3701 694.891 7.42791 692.467 5.49858 689.655C3.61749 686.842 2.67694 683.497 2.67694 679.618C2.67694 673.17 5.378 667.715 10.7801 663.255C16.2305 658.794 23.176 656.564 31.6168 656.564C40.4917 656.564 47.6785 658.867 53.1771 663.473C58.7239 668.079 61.4973 673.97 61.4973 681.145H48.0402C48.0402 677.461 46.4727 674.285 43.3375 671.618C40.2506 668.952 36.3437 667.618 31.6168 667.618C26.7453 667.618 22.9349 668.685 20.1856 670.818C17.4363 672.952 16.0616 675.739 16.0616 679.182C16.0616 682.43 17.3398 684.879 19.8962 686.527C22.4525 688.176 27.0588 689.752 33.715 691.255C40.4194 692.758 45.8456 694.552 49.9937 696.636C54.1417 698.721 57.2045 701.242 59.1821 704.2C61.2079 707.109 62.2208 710.673 62.2208 714.891C62.2208 721.921 59.4233 727.57 53.8282 731.836C48.2332 736.055 40.9741 738.164 32.0509 738.164C25.7806 738.164 20.2338 737.048 15.4105 734.818C10.5872 732.588 6.80088 729.485 4.05159 725.509C1.35053 721.485 0 717.145 0 712.491H13.3847C13.6259 717 15.4105 720.588 18.7386 723.255C22.1149 725.873 26.5524 727.182 32.0509 727.182C37.1154 727.182 41.167 726.164 44.2057 724.127C47.2926 722.042 48.8361 719.279 48.8361 715.836Z" fill="white"/>
<path d="M76.1119 696.636C76.1119 688.927 77.6072 681.994 80.5976 675.836C83.6363 669.679 87.8326 664.927 93.1865 661.582C98.5886 658.236 104.738 656.564 111.636 656.564C122.295 656.564 130.905 660.273 137.465 667.691C144.072 675.109 147.376 684.976 147.376 697.291V698.236C147.376 705.897 145.905 712.782 142.963 718.891C140.069 724.952 135.897 729.679 130.447 733.073C125.044 736.467 118.822 738.164 111.78 738.164C101.169 738.164 92.5594 734.455 85.9515 727.036C79.3918 719.618 76.1119 709.8 76.1119 697.582V696.636ZM89.569 698.236C89.569 706.964 91.5707 713.97 95.574 719.255C99.6256 724.539 105.028 727.182 111.78 727.182C118.581 727.182 123.983 724.515 127.987 719.182C131.99 713.8 133.992 706.285 133.992 696.636C133.992 688.006 131.942 681.024 127.842 675.691C123.79 670.309 118.388 667.618 111.636 667.618C105.028 667.618 99.6979 670.261 95.6464 675.545C91.5948 680.83 89.569 688.394 89.569 698.236Z" fill="white"/>
<path d="M178.704 736.709H165.319V625H178.704V736.709Z" fill="white"/>
<path d="M248.521 728.927C243.312 735.085 235.667 738.164 225.587 738.164C217.242 738.164 210.875 735.739 206.486 730.891C202.145 725.994 199.951 718.77 199.902 709.218V658.018H213.287V708.855C213.287 720.782 218.11 726.745 227.757 726.745C237.982 726.745 244.783 722.915 248.16 715.255V658.018H261.544V736.709H248.811L248.521 728.927Z" fill="white"/>
<path d="M313.347 727.182C318.122 727.182 322.294 725.727 325.863 722.818C329.432 719.909 331.41 716.273 331.796 711.909H344.457C344.216 716.418 342.673 720.709 339.827 724.782C336.981 728.855 333.171 732.103 328.395 734.527C323.669 736.952 318.652 738.164 313.347 738.164C302.687 738.164 294.198 734.6 287.88 727.473C281.609 720.297 278.474 710.503 278.474 698.091V695.836C278.474 688.176 279.873 681.364 282.67 675.4C285.468 669.436 289.471 664.806 294.681 661.509C299.938 658.212 306.136 656.564 313.274 656.564C322.053 656.564 329.336 659.206 335.124 664.491C340.96 669.776 344.071 676.636 344.457 685.073H331.796C331.41 679.982 329.481 675.812 326.008 672.564C322.583 669.267 318.339 667.618 313.274 667.618C306.474 667.618 301.192 670.091 297.43 675.036C293.716 679.933 291.859 687.036 291.859 696.345V698.891C291.859 707.958 293.716 714.939 297.43 719.836C301.144 724.733 306.449 727.182 313.347 727.182ZM315.517 737.364L314.649 741.145C322.029 742.455 325.719 746.648 325.719 753.727C325.719 758.43 323.789 762.139 319.931 764.855C316.072 767.618 310.694 769 303.797 769L303.29 761.218C307.101 761.218 310.043 760.588 312.117 759.327C314.239 758.067 315.3 756.297 315.3 754.018C315.3 751.885 314.528 750.309 312.985 749.291C311.442 748.273 308.306 747.545 303.58 747.109L305.895 737.364H315.517Z" fill="white"/>
<path d="M355.961 696.636C355.961 688.927 357.456 681.994 360.446 675.836C363.485 669.679 367.681 664.927 373.035 661.582C378.437 658.236 384.587 656.564 391.484 656.564C402.144 656.564 410.754 660.273 417.313 667.691C423.921 675.109 427.225 684.976 427.225 697.291V698.236C427.225 705.897 425.754 712.782 422.812 718.891C419.918 724.952 415.746 729.679 410.295 733.073C404.893 736.467 398.671 738.164 391.629 738.164C381.018 738.164 372.408 734.455 365.8 727.036C359.241 719.618 355.961 709.8 355.961 697.582V696.636ZM369.418 698.236C369.418 706.964 371.419 713.97 375.423 719.255C379.474 724.539 384.877 727.182 391.629 727.182C398.43 727.182 403.832 724.515 407.836 719.182C411.839 713.8 413.841 706.285 413.841 696.636C413.841 688.006 411.791 681.024 407.691 675.691C403.639 670.309 398.237 667.618 391.484 667.618C384.877 667.618 379.547 670.261 375.495 675.545C371.444 680.83 369.418 688.394 369.418 698.236ZM416.662 627.327C416.662 632.564 415.167 636.806 412.176 640.055C409.234 643.303 405.544 644.927 401.107 644.927C399.129 644.927 397.417 644.685 395.97 644.2C394.523 643.715 392.618 642.721 390.255 641.218C387.939 639.715 386.251 638.818 385.19 638.527C384.177 638.188 382.995 638.018 381.645 638.018C379.667 638.018 377.979 638.794 376.58 640.345C375.182 641.848 374.482 643.788 374.482 646.164L365.511 645.655C365.511 640.467 366.958 636.176 369.852 632.782C372.794 629.388 376.508 627.691 380.994 627.691C382.682 627.691 384.201 627.933 385.552 628.418C386.902 628.903 388.735 629.848 391.05 631.255C393.366 632.661 395.126 633.582 396.332 634.018C397.586 634.455 398.961 634.673 400.456 634.673C402.53 634.673 404.242 633.848 405.593 632.2C406.991 630.552 407.691 628.636 407.691 626.455L416.662 627.327Z" fill="white"/>
<path d="M476.495 738.164C465.884 738.164 457.25 734.673 450.594 727.691C443.938 720.661 440.61 711.279 440.61 699.545V697.073C440.61 689.267 442.081 682.309 445.023 676.2C448.014 670.042 452.162 665.242 457.467 661.8C462.821 658.309 468.609 656.564 474.831 656.564C485.009 656.564 492.919 659.933 498.562 666.673C504.205 673.412 507.027 683.061 507.027 695.618V701.218H453.995C454.188 708.976 456.43 715.255 460.723 720.055C465.064 724.806 470.563 727.182 477.219 727.182C481.946 727.182 485.949 726.212 489.229 724.273C492.509 722.333 495.379 719.764 497.839 716.564L506.014 722.964C499.454 733.097 489.615 738.164 476.495 738.164ZM474.831 667.618C469.429 667.618 464.895 669.606 461.23 673.582C457.564 677.509 455.297 683.036 454.429 690.164H493.642V689.145C493.256 682.309 491.424 677.024 488.144 673.291C484.864 669.509 480.426 667.618 474.831 667.618Z" fill="white"/>
<path d="M568.163 715.836C568.163 712.2 566.788 709.388 564.039 707.4C561.338 705.364 556.587 703.618 549.786 702.164C543.033 700.709 537.655 698.964 533.652 696.927C529.697 694.891 526.754 692.467 524.825 689.655C522.944 686.842 522.003 683.497 522.003 679.618C522.003 673.17 524.704 667.715 530.107 663.255C535.557 658.794 542.503 656.564 550.943 656.564C559.818 656.564 567.005 658.867 572.504 663.473C578.05 668.079 580.824 673.97 580.824 681.145H567.367C567.367 677.461 565.799 674.285 562.664 671.618C559.577 668.952 555.67 667.618 550.943 667.618C546.072 667.618 542.261 668.685 539.512 670.818C536.763 672.952 535.388 675.739 535.388 679.182C535.388 682.43 536.666 684.879 539.223 686.527C541.779 688.176 546.385 689.752 553.041 691.255C559.746 692.758 565.172 694.552 569.32 696.636C573.468 698.721 576.531 701.242 578.509 704.2C580.534 707.109 581.547 710.673 581.547 714.891C581.547 721.921 578.75 727.57 573.155 731.836C567.56 736.055 560.301 738.164 551.377 738.164C545.107 738.164 539.56 737.048 534.737 734.818C529.914 732.588 526.127 729.485 523.378 725.509C520.677 721.485 519.326 717.145 519.326 712.491H532.711C532.952 717 534.737 720.588 538.065 723.255C541.441 725.873 545.879 727.182 551.377 727.182C556.442 727.182 560.493 726.164 563.532 724.127C566.619 722.042 568.163 719.279 568.163 715.836Z" fill="white"/>
<path d="M705.048 718.164L720.097 658.018H733.482L710.692 736.709H699.839L680.811 677.073L662.29 736.709H651.437L628.719 658.018H642.032L657.442 716.927L675.674 658.018H686.454L705.048 718.164Z" fill="white"/>
<path d="M779.641 738.164C769.03 738.164 760.396 734.673 753.74 727.691C747.083 720.661 743.755 711.279 743.755 699.545V697.073C743.755 689.267 745.227 682.309 748.169 676.2C751.159 670.042 755.307 665.242 760.613 661.8C765.967 658.309 771.755 656.564 777.977 656.564C788.154 656.564 796.064 659.933 801.708 666.673C807.351 673.412 810.172 683.061 810.172 695.618V701.218H757.14C757.333 708.976 759.576 715.255 763.869 720.055C768.21 724.806 773.708 727.182 780.364 727.182C785.091 727.182 789.095 726.212 792.374 724.273C795.654 722.333 798.524 719.764 800.984 716.564L809.16 722.964C802.6 733.097 792.76 738.164 779.641 738.164ZM777.977 667.618C772.575 667.618 768.041 669.606 764.375 673.582C760.709 677.509 758.442 683.036 757.574 690.164H796.788V689.145C796.402 682.309 794.569 677.024 791.289 673.291C788.009 669.509 783.572 667.618 777.977 667.618Z" fill="white"/>
<path d="M892 698.236C892 710.261 889.251 719.933 883.752 727.255C878.254 734.527 870.874 738.164 861.613 738.164C851.725 738.164 844.08 734.648 838.678 727.618L838.027 736.709H825.728V625H839.112V666.673C844.514 659.933 851.966 656.564 861.468 656.564C870.97 656.564 878.422 660.176 883.824 667.4C889.275 674.624 892 684.515 892 697.073V698.236ZM878.615 696.709C878.615 687.545 876.855 680.467 873.334 675.473C869.813 670.479 864.748 667.982 858.14 667.982C849.314 667.982 842.971 672.103 839.112 680.345V714.382C843.212 722.624 849.603 726.745 858.285 726.745C864.7 726.745 869.692 724.248 873.261 719.255C876.831 714.261 878.615 706.745 878.615 696.709Z" fill="white"/>
</svg>
