<svg width="1341" height="894" viewBox="0 0 1341 894" fill="none" xmlns="http://www.w3.org/2000/svg">
<rect x="12.5" y="12.5" width="1316" height="869" rx="157.5" fill="white" stroke="#FF6347" stroke-width="25"/>
<path d="M171.187 119.136C171.187 113.568 169.554 109.113 166.286 105.772C163.161 102.292 158.9 100.552 153.502 100.552C149.098 100.552 144.339 101.805 139.225 104.31V184.912H116V80.2969H136.669L139.439 81.5498C145.405 79.6009 151.584 78.6264 157.976 78.6264C165.079 78.6264 171.258 79.8793 176.514 82.3851C182.196 84.8908 186.6 88.6494 189.725 93.6609C192.992 98.6724 194.626 105.006 194.626 112.663V184.912H171.187V119.136Z" fill="#FF6347"/>
<path d="M305 146.49C305 158.184 301.733 167.859 295.198 175.515C288.664 183.172 278.791 187 265.581 187C252.37 187 242.355 183.172 235.537 175.515C228.86 167.72 225.522 158.045 225.522 146.49V118.927C225.522 105.702 228.931 95.6098 235.75 88.6494C242.71 81.5498 252.654 78 265.581 78C277.939 78 287.599 81.689 294.559 89.067C301.52 96.3059 305 106.259 305 118.927V146.49ZM281.775 118.927C281.775 111.549 280.212 106.746 277.087 104.519C273.962 102.292 270.126 101.178 265.581 101.178C254.501 101.178 248.961 107.095 248.961 118.927V148.579C248.961 154.147 250.523 158.184 253.648 160.69C256.773 163.195 260.751 164.448 265.581 164.448C270.268 164.448 274.104 163.126 277.087 160.481C280.212 157.836 281.775 153.868 281.775 148.579V118.927Z" fill="#FF6347"/>
<path d="M113 195.669H302.282V258.028H175.339V358.368H254.678L234.277 417.892H175.339V592.497H113V195.669Z" fill="#15534D"/>
<path d="M386.639 256.894C377.571 256.894 369.637 253.492 362.837 246.69C356.036 239.887 352.636 231.95 352.636 222.88C352.636 214.188 356.036 206.629 362.837 200.204C369.637 193.401 377.571 190 386.639 190C395.328 190 402.884 193.401 409.307 200.204C416.108 206.629 419.508 214.188 419.508 222.88C419.508 231.95 416.108 239.887 409.307 246.69C402.884 253.492 395.328 256.894 386.639 256.894ZM353.769 308.481H416.108V592.497H353.769V308.481Z" fill="#15534D"/>
<path d="M547.793 514.265C547.793 521.068 551.194 527.492 557.994 533.539C565.173 539.586 575.94 542.61 590.297 542.61C602.765 542.61 612.399 539.586 619.199 533.539C626 527.114 629.4 519.745 629.4 511.43C629.4 499.714 625.055 491.022 616.366 485.353C608.054 479.684 594.453 473.448 575.562 466.645C559.317 461.354 545.904 456.063 535.326 450.772C524.747 445.481 515.302 437.545 506.99 426.963C498.678 416.381 493.767 402.586 492.255 385.579C491.122 372.73 493.578 359.88 499.623 347.03C506.046 333.803 516.624 323.032 531.359 314.717C546.471 306.025 565.739 301.679 589.164 301.679C601.253 301.679 611.832 303.001 620.9 305.647C630.345 307.914 637.712 310.371 643.001 313.017C648.291 315.662 651.502 317.363 652.635 318.119L634.501 375.942C633.745 375.186 631.667 373.863 628.267 371.974C625.244 369.706 620.333 367.628 613.532 365.738C606.732 363.848 598.609 362.903 589.164 362.903C568.762 362.903 558.561 368.572 558.561 379.91C558.561 382.178 558.939 384.445 559.694 386.713C560.828 392.004 564.795 396.539 571.595 400.319C578.396 403.72 588.408 407.877 601.631 412.79C620.144 419.593 635.634 426.396 648.102 433.199C660.947 439.623 671.904 449.45 680.971 462.677C690.416 475.527 695.139 492.156 695.139 512.564C695.139 528.059 691.361 542.61 683.805 556.215C676.249 569.443 664.536 580.214 648.668 588.528C633.178 596.843 613.721 601 590.297 601C568.762 601 550.06 597.41 534.192 590.229C518.702 582.67 506.801 572.844 498.489 560.75C490.555 548.657 486.211 535.24 485.455 520.501L547.793 514.265Z" fill="#15534D"/>
<path d="M912 589.095C888.576 595.142 865.907 598.165 843.994 598.165C823.593 598.165 806.591 595.898 792.99 591.363C770.699 583.804 754.454 572.277 744.253 556.782C734.43 540.909 729.518 518.8 729.518 490.455V417.892C729.518 380.477 739.341 352.132 758.987 332.858C778.633 313.205 803.947 303.379 834.927 303.379C859.484 303.379 884.798 309.426 910.867 321.52L893.865 375.375C875.73 368.194 859.485 364.604 845.128 364.604C828.126 364.604 814.903 369.328 805.458 378.777C796.39 388.225 791.857 400.13 791.857 414.491V496.691C791.857 511.052 796.957 521.257 807.158 527.303C817.359 533.35 830.393 536.374 846.261 536.374C855.329 536.374 864.396 535.429 873.464 533.539C882.531 531.65 889.709 529.76 894.999 527.87L912 589.095Z" fill="#15534D"/>
<path d="M1047 578.889C1047 568.457 1055.4 560 1065.77 560H1089.23C1099.6 560 1108 568.457 1108 578.889V796.111C1108 806.543 1099.6 815 1089.23 815H1065.77C1055.4 815 1047 806.543 1047 796.111V578.889Z" fill="#15534D"/>
<path d="M1198.5 453.5C1198.5 520.326 1144.33 574.5 1077.5 574.5C1010.67 574.5 956.5 520.326 956.5 453.5C956.5 386.674 1010.67 332.5 1077.5 332.5C1144.33 332.5 1198.5 386.674 1198.5 453.5Z" fill="#FF6347" stroke="#15534D" stroke-width="55"/>
<path d="M165.384 761.467C165.384 757.806 163.994 754.974 161.213 752.972C158.482 750.922 153.678 749.164 146.801 747.699C139.972 746.235 134.534 744.477 130.486 742.427C126.486 740.376 123.511 737.935 121.56 735.104C119.658 732.272 118.707 728.903 118.707 724.997C118.707 718.504 121.438 713.012 126.901 708.52C132.412 704.029 139.436 701.783 147.971 701.783C156.946 701.783 164.213 704.102 169.773 708.74C175.382 713.378 178.187 719.31 178.187 726.535H164.579C164.579 722.825 162.994 719.627 159.823 716.942C156.702 714.257 152.751 712.914 147.971 712.914C143.045 712.914 139.192 713.988 136.412 716.136C133.632 718.285 132.242 721.092 132.242 724.558C132.242 727.829 133.534 730.295 136.119 731.955C138.704 733.614 143.362 735.201 150.093 736.715C156.873 738.228 162.36 740.035 166.554 742.134C170.749 744.233 173.846 746.772 175.846 749.75C177.894 752.679 178.918 756.268 178.918 760.515C178.918 767.594 176.089 773.282 170.432 777.578C164.774 781.826 157.433 783.95 148.41 783.95C142.07 783.95 136.461 782.827 131.583 780.581C126.706 778.335 122.877 775.21 120.097 771.207C117.366 767.155 116 762.785 116 758.098H129.535C129.779 762.639 131.583 766.252 134.949 768.937C138.363 771.573 142.85 772.891 148.41 772.891C153.532 772.891 157.629 771.866 160.701 769.816C163.823 767.716 165.384 764.934 165.384 761.467Z" fill="#15534D"/>
<path d="M192.965 742.134C192.965 734.371 194.477 727.39 197.501 721.189C200.574 714.989 204.817 710.205 210.231 706.836C215.694 703.467 221.913 701.783 228.887 701.783C239.666 701.783 248.372 705.518 255.006 712.987C261.688 720.457 265.029 730.392 265.029 742.793V743.745C265.029 751.459 263.541 758.391 260.566 764.543C257.639 770.646 253.42 775.406 247.909 778.823C242.446 782.241 236.154 783.95 229.033 783.95C218.303 783.95 209.597 780.215 202.915 772.745C196.282 765.275 192.965 755.389 192.965 743.086V742.134ZM206.573 743.745C206.573 752.533 208.597 759.588 212.645 764.909C216.742 770.231 222.205 772.891 229.033 772.891C235.911 772.891 241.373 770.206 245.422 764.836C249.47 759.417 251.494 751.849 251.494 742.134C251.494 733.444 249.421 726.413 245.275 721.043C241.178 715.624 235.716 712.914 228.887 712.914C222.205 712.914 216.816 715.575 212.719 720.896C208.622 726.218 206.573 733.834 206.573 743.745Z" fill="#15534D"/>
<path d="M296.707 782.485H283.173V670H296.707V782.485Z" fill="#15534D"/>
<path d="M367.307 774.649C362.04 780.849 354.309 783.95 344.115 783.95C335.678 783.95 329.239 781.508 324.801 776.626C320.411 771.695 318.192 764.421 318.143 754.803V703.247H331.678V754.437C331.678 766.447 336.556 772.452 346.31 772.452C356.65 772.452 363.527 768.595 366.942 760.881V703.247H380.476V782.485H367.6L367.307 774.649Z" fill="#15534D"/>
<path d="M432.86 772.891C437.688 772.891 441.907 771.427 445.516 768.497C449.126 765.568 451.125 761.907 451.516 757.513H464.319C464.075 762.053 462.514 766.374 459.636 770.475C456.759 774.576 452.906 777.847 448.077 780.288C443.297 782.729 438.225 783.95 432.86 783.95C422.081 783.95 413.496 780.361 407.107 773.184C400.766 765.959 397.596 756.097 397.596 743.598V741.328C397.596 733.614 399.01 726.755 401.839 720.75C404.668 714.745 408.717 710.082 413.984 706.763C419.3 703.443 425.568 701.783 432.786 701.783C441.663 701.783 449.028 704.444 454.881 709.765C460.783 715.087 463.929 721.995 464.319 730.49H451.516C451.125 725.364 449.174 721.165 445.663 717.894C442.2 714.574 437.908 712.914 432.786 712.914C425.909 712.914 420.569 715.404 416.764 720.384C413.009 725.315 411.131 732.467 411.131 741.841V744.404C411.131 753.534 413.009 760.564 416.764 765.495C420.52 770.426 425.885 772.891 432.86 772.891ZM435.054 783.144L434.176 786.952C441.639 788.27 445.37 792.493 445.37 799.621C445.37 804.357 443.419 808.092 439.517 810.826C435.615 813.609 430.177 815 423.202 815L422.69 807.164C426.543 807.164 429.519 806.529 431.616 805.26C433.762 803.991 434.835 802.209 434.835 799.914C434.835 797.766 434.055 796.179 432.494 795.154C430.933 794.129 427.763 793.396 422.983 792.957L425.324 783.144H435.054Z" fill="#15534D"/>
<path d="M475.951 742.134C475.951 734.371 477.463 727.39 480.487 721.189C483.56 714.989 487.803 710.205 493.217 706.836C498.68 703.467 504.899 701.783 511.873 701.783C522.652 701.783 531.358 705.518 537.992 712.987C544.674 720.457 548.015 730.392 548.015 742.793V743.745C548.015 751.459 546.527 758.391 543.552 764.543C540.626 770.646 536.407 775.406 530.895 778.823C525.432 782.241 519.141 783.95 512.02 783.95C501.289 783.95 492.583 780.215 485.901 772.745C479.268 765.275 475.951 755.389 475.951 743.086V742.134ZM489.559 743.745C489.559 752.533 491.583 759.588 495.632 764.909C499.729 770.231 505.191 772.891 512.02 772.891C518.897 772.891 524.359 770.206 528.408 764.836C532.456 759.417 534.48 751.849 534.48 742.134C534.48 733.444 532.407 726.413 528.261 721.043C524.164 715.624 518.702 712.914 511.873 712.914C505.191 712.914 499.802 715.575 495.705 720.896C491.608 726.218 489.559 733.834 489.559 743.745ZM537.333 672.343C537.333 677.616 535.821 681.888 532.797 685.159C529.822 688.43 526.091 690.066 521.604 690.066C519.604 690.066 517.872 689.822 516.409 689.333C514.946 688.845 513.019 687.844 510.63 686.331C508.288 684.817 506.581 683.914 505.508 683.621C504.484 683.279 503.289 683.109 501.923 683.109C499.924 683.109 498.217 683.89 496.802 685.452C495.388 686.965 494.681 688.918 494.681 691.311L485.609 690.798C485.609 685.574 487.072 681.253 489.998 677.836C492.973 674.418 496.729 672.71 501.265 672.71C502.972 672.71 504.508 672.954 505.874 673.442C507.24 673.93 509.093 674.882 511.434 676.298C513.775 677.714 515.556 678.641 516.775 679.081C518.043 679.52 519.433 679.74 520.945 679.74C523.043 679.74 524.774 678.91 526.14 677.25C527.554 675.59 528.261 673.662 528.261 671.465L537.333 672.343Z" fill="#15534D"/>
<path d="M597.837 783.95C587.107 783.95 578.376 780.434 571.646 773.404C564.915 766.325 561.549 756.878 561.549 745.063V742.573C561.549 734.713 563.037 727.707 566.012 721.556C569.036 715.355 573.231 710.522 578.596 707.056C584.01 703.54 589.863 701.783 596.155 701.783C606.446 701.783 614.445 705.176 620.151 711.962C625.858 718.748 628.711 728.464 628.711 741.109V746.747H575.084C575.279 754.559 577.547 760.881 581.888 765.715C586.278 770.499 591.838 772.891 598.569 772.891C603.349 772.891 607.397 771.915 610.714 769.962C614.03 768.009 616.932 765.422 619.42 762.199L627.687 768.644C621.054 778.848 611.104 783.95 597.837 783.95ZM596.155 712.914C590.692 712.914 586.107 714.916 582.4 718.919C578.694 722.874 576.401 728.439 575.523 735.616H615.176V734.591C614.786 727.707 612.933 722.386 609.616 718.626C606.3 714.818 601.812 712.914 596.155 712.914Z" fill="#15534D"/>
<path d="M690.532 761.467C690.532 757.806 689.142 754.974 686.362 752.972C683.631 750.922 678.826 749.164 671.949 747.699C665.121 746.235 659.683 744.477 655.634 742.427C651.635 740.376 648.66 737.935 646.709 735.104C644.807 732.272 643.855 728.903 643.855 724.997C643.855 718.504 646.587 713.012 652.049 708.52C657.561 704.029 664.584 701.783 673.12 701.783C682.094 701.783 689.362 704.102 694.922 708.74C700.531 713.378 703.335 719.31 703.335 726.535H689.727C689.727 722.825 688.142 719.627 684.972 716.942C681.85 714.257 677.9 712.914 673.12 712.914C668.194 712.914 664.34 713.988 661.56 716.136C658.78 718.285 657.39 721.092 657.39 724.558C657.39 727.829 658.683 730.295 661.268 731.955C663.853 733.614 668.511 735.201 675.241 736.715C682.021 738.228 687.508 740.035 691.703 742.134C695.897 744.233 698.994 746.772 700.994 749.75C703.043 752.679 704.067 756.268 704.067 760.515C704.067 767.594 701.238 773.282 695.58 777.578C689.922 781.826 682.582 783.95 673.559 783.95C667.218 783.95 661.609 782.827 656.732 780.581C651.854 778.335 648.026 775.21 645.245 771.207C642.514 767.155 641.148 762.785 641.148 758.098H654.683C654.927 762.639 656.732 766.252 660.097 768.937C663.511 771.573 667.999 772.891 673.559 772.891C678.68 772.891 682.777 771.866 685.85 769.816C688.971 767.716 690.532 764.934 690.532 761.467Z" fill="#15534D"/>
<path d="M828.952 763.811L844.17 703.247H857.705L834.659 782.485H823.685L804.443 722.434L785.714 782.485H774.74L751.768 703.247H765.229L780.813 762.566L799.249 703.247H810.15L828.952 763.811Z" fill="#15534D"/>
<path d="M904.381 783.95C893.651 783.95 884.92 780.434 878.19 773.404C871.459 766.325 868.093 756.878 868.093 745.063V742.573C868.093 734.713 869.581 727.707 872.556 721.556C875.58 715.355 879.775 710.522 885.14 707.056C890.554 703.54 896.407 701.783 902.698 701.783C912.99 701.783 920.989 705.176 926.695 711.962C932.402 718.748 935.255 728.464 935.255 741.109V746.747H881.628C881.823 754.559 884.091 760.881 888.432 765.715C892.822 770.499 898.382 772.891 905.113 772.891C909.893 772.891 913.941 771.915 917.258 769.962C920.574 768.009 923.476 765.422 925.964 762.199L934.231 768.644C927.598 778.848 917.648 783.95 904.381 783.95ZM902.698 712.914C897.236 712.914 892.651 714.916 888.944 718.919C885.237 722.874 882.945 728.439 882.067 735.616H921.72V734.591C921.33 727.707 919.477 722.386 916.16 718.626C912.843 714.818 908.356 712.914 902.698 712.914Z" fill="#15534D"/>
<path d="M1018 743.745C1018 755.853 1015.22 765.593 1009.66 772.965C1004.1 780.288 996.637 783.95 987.272 783.95C977.274 783.95 969.543 780.41 964.08 773.331L963.422 782.485H950.985V670H964.519V711.962C969.982 705.176 977.518 701.783 987.126 701.783C996.735 701.783 1004.27 705.42 1009.73 712.694C1015.24 719.969 1018 729.928 1018 742.573V743.745ZM1004.47 742.207C1004.47 732.98 1002.68 725.852 999.124 720.823C995.564 715.795 990.443 713.28 983.761 713.28C974.835 713.28 968.421 717.43 964.519 725.73V760.003C968.665 768.302 975.128 772.452 983.907 772.452C990.394 772.452 995.442 769.938 999.051 764.909C1002.66 759.88 1004.47 752.313 1004.47 742.207Z" fill="#15534D"/>
</svg>
